ISO-10303-21;
HEADER;
/* Generated by software containing ST-Developer
 * from STEP Tools, Inc. (www.steptools.com) 
 */

FILE_DESCRIPTION(
/* description */ (''),
/* implementation_level */ '2;1');

FILE_NAME(
/* name */ 'wifi_bracket.step',
/* time_stamp */ '2026-08-11T02:43:08+02:00',
/* author */ (''),
/* organization */ (''),
/* preprocessor_version */ 'ST-DEVELOPER v20.1',
/* originating_system */ 'Autodesk Translation Framework v15.8.0.0',
/* authorisation */ '');

FILE_SCHEMA (('AUTOMOTIVE_DESIGN { 1 0 10303 214 3 1 1 }'));
ENDSEC;

DATA;
#10=MECHANICAL_DESIGN_GEOMETRIC_PRESENTATION_REPRESENTATION('',(#13),#772);
#11=SHAPE_REPRESENTATION_RELATIONSHIP('SRR','None',#779,#12);
#12=ADVANCED_BREP_SHAPE_REPRESENTATION('',(#14),#771);
#13=STYLED_ITEM('',(#788),#14);
#14=MANIFOLD_SOLID_BREP('Body1',#476);
#15=CIRCLE('',#507,1.95);
#16=CIRCLE('',#508,1.95);
#17=CIRCLE('',#511,1.95);
#18=CIRCLE('',#512,1.95);
#19=CYLINDRICAL_SURFACE('',#506,1.95);
#20=CYLINDRICAL_SURFACE('',#510,1.95);
#21=FACE_BOUND('',#65,.T.);
#22=FACE_BOUND('',#72,.T.);
#23=FACE_BOUND('',#77,.T.);
#24=FACE_BOUND('',#78,.T.);
#25=FACE_OUTER_BOUND('',#50,.T.);
#26=FACE_OUTER_BOUND('',#51,.T.);
#27=FACE_OUTER_BOUND('',#52,.T.);
#28=FACE_OUTER_BOUND('',#53,.T.);
#29=FACE_OUTER_BOUND('',#54,.T.);
#30=FACE_OUTER_BOUND('',#55,.T.);
#31=FACE_OUTER_BOUND('',#56,.T.);
#32=FACE_OUTER_BOUND('',#57,.T.);
#33=FACE_OUTER_BOUND('',#58,.T.);
#34=FACE_OUTER_BOUND('',#59,.T.);
#35=FACE_OUTER_BOUND('',#60,.T.);
#36=FACE_OUTER_BOUND('',#61,.T.);
#37=FACE_OUTER_BOUND('',#62,.T.);
#38=FACE_OUTER_BOUND('',#63,.T.);
#39=FACE_OUTER_BOUND('',#64,.T.);
#40=FACE_OUTER_BOUND('',#66,.T.);
#41=FACE_OUTER_BOUND('',#67,.T.);
#42=FACE_OUTER_BOUND('',#68,.T.);
#43=FACE_OUTER_BOUND('',#69,.T.);
#44=FACE_OUTER_BOUND('',#70,.T.);
#45=FACE_OUTER_BOUND('',#71,.T.);
#46=FACE_OUTER_BOUND('',#73,.T.);
#47=FACE_OUTER_BOUND('',#74,.T.);
#48=FACE_OUTER_BOUND('',#75,.T.);
#49=FACE_OUTER_BOUND('',#76,.T.);
#50=EDGE_LOOP('',(#302,#303,#304,#305));
#51=EDGE_LOOP('',(#306,#307,#308,#309));
#52=EDGE_LOOP('',(#310,#311,#312,#313));
#53=EDGE_LOOP('',(#314,#315,#316,#317));
#54=EDGE_LOOP('',(#318,#319,#320,#321));
#55=EDGE_LOOP('',(#322,#323,#324,#325));
#56=EDGE_LOOP('',(#326,#327,#328,#329));
#57=EDGE_LOOP('',(#330,#331,#332,#333));
#58=EDGE_LOOP('',(#334,#335,#336,#337));
#59=EDGE_LOOP('',(#338,#339,#340,#341));
#60=EDGE_LOOP('',(#342,#343,#344,#345));
#61=EDGE_LOOP('',(#346,#347,#348,#349));
#62=EDGE_LOOP('',(#350,#351,#352,#353));
#63=EDGE_LOOP('',(#354,#355,#356,#357));
#64=EDGE_LOOP('',(#358,#359,#360,#361));
#65=EDGE_LOOP('',(#362,#363,#364,#365,#366,#367,#368,#369,#370,#371,#372,
#373));
#66=EDGE_LOOP('',(#374,#375,#376,#377,#378,#379));
#67=EDGE_LOOP('',(#380,#381,#382,#383));
#68=EDGE_LOOP('',(#384));
#69=EDGE_LOOP('',(#385,#386,#387,#388));
#70=EDGE_LOOP('',(#389));
#71=EDGE_LOOP('',(#390,#391,#392,#393));
#72=EDGE_LOOP('',(#394,#395,#396,#397,#398,#399,#400,#401,#402,#403,#404,
#405));
#73=EDGE_LOOP('',(#406,#407,#408,#409));
#74=EDGE_LOOP('',(#410,#411,#412,#413,#414,#415));
#75=EDGE_LOOP('',(#416,#417,#418,#419,#420,#421));
#76=EDGE_LOOP('',(#422,#423,#424,#425));
#77=EDGE_LOOP('',(#426));
#78=EDGE_LOOP('',(#427));
#79=LINE('',#642,#138);
#80=LINE('',#644,#139);
#81=LINE('',#646,#140);
#82=LINE('',#647,#141);
#83=LINE('',#650,#142);
#84=LINE('',#652,#143);
#85=LINE('',#653,#144);
#86=LINE('',#656,#145);
#87=LINE('',#658,#146);
#88=LINE('',#659,#147);
#89=LINE('',#662,#148);
#90=LINE('',#664,#149);
#91=LINE('',#665,#150);
#92=LINE('',#668,#151);
#93=LINE('',#670,#152);
#94=LINE('',#671,#153);
#95=LINE('',#674,#154);
#96=LINE('',#676,#155);
#97=LINE('',#677,#156);
#98=LINE('',#680,#157);
#99=LINE('',#682,#158);
#100=LINE('',#683,#159);
#101=LINE('',#686,#160);
#102=LINE('',#688,#161);
#103=LINE('',#689,#162);
#104=LINE('',#692,#163);
#105=LINE('',#694,#164);
#106=LINE('',#695,#165);
#107=LINE('',#698,#166);
#108=LINE('',#700,#167);
#109=LINE('',#701,#168);
#110=LINE('',#704,#169);
#111=LINE('',#706,#170);
#112=LINE('',#707,#171);
#113=LINE('',#709,#172);
#114=LINE('',#710,#173);
#115=LINE('',#714,#174);
#116=LINE('',#716,#175);
#117=LINE('',#718,#176);
#118=LINE('',#719,#177);
#119=LINE('',#722,#178);
#120=LINE('',#724,#179);
#121=LINE('',#725,#180);
#122=LINE('',#728,#181);
#123=LINE('',#729,#182);
#124=LINE('',#732,#183);
#125=LINE('',#734,#184);
#126=LINE('',#736,#185);
#127=LINE('',#737,#186);
#128=LINE('',#742,#187);
#129=LINE('',#749,#188);
#130=LINE('',#754,#189);
#131=LINE('',#756,#190);
#132=LINE('',#757,#191);
#133=LINE('',#760,#192);
#134=LINE('',#762,#193);
#135=LINE('',#763,#194);
#136=LINE('',#765,#195);
#137=LINE('',#766,#196);
#138=VECTOR('',#523,10.);
#139=VECTOR('',#524,10.);
#140=VECTOR('',#525,10.);
#141=VECTOR('',#526,10.);
#142=VECTOR('',#529,10.);
#143=VECTOR('',#530,10.);
#144=VECTOR('',#531,10.);
#145=VECTOR('',#534,10.);
#146=VECTOR('',#535,10.);
#147=VECTOR('',#536,10.);
#148=VECTOR('',#539,10.);
#149=VECTOR('',#540,10.);
#150=VECTOR('',#541,10.);
#151=VECTOR('',#544,10.);
#152=VECTOR('',#545,10.);
#153=VECTOR('',#546,10.);
#154=VECTOR('',#549,10.);
#155=VECTOR('',#550,10.);
#156=VECTOR('',#551,10.);
#157=VECTOR('',#554,10.);
#158=VECTOR('',#555,10.);
#159=VECTOR('',#556,10.);
#160=VECTOR('',#559,10.);
#161=VECTOR('',#560,10.);
#162=VECTOR('',#561,10.);
#163=VECTOR('',#564,10.);
#164=VECTOR('',#565,10.);
#165=VECTOR('',#566,10.);
#166=VECTOR('',#569,10.);
#167=VECTOR('',#570,10.);
#168=VECTOR('',#571,10.);
#169=VECTOR('',#574,10.);
#170=VECTOR('',#575,10.);
#171=VECTOR('',#576,10.);
#172=VECTOR('',#579,10.);
#173=VECTOR('',#580,10.);
#174=VECTOR('',#583,10.);
#175=VECTOR('',#584,10.);
#176=VECTOR('',#585,10.);
#177=VECTOR('',#586,10.);
#178=VECTOR('',#589,10.);
#179=VECTOR('',#590,10.);
#180=VECTOR('',#591,10.);
#181=VECTOR('',#594,10.);
#182=VECTOR('',#595,10.);
#183=VECTOR('',#598,10.);
#184=VECTOR('',#599,10.);
#185=VECTOR('',#600,10.);
#186=VECTOR('',#601,10.);
#187=VECTOR('',#606,1.95);
#188=VECTOR('',#615,1.95);
#189=VECTOR('',#622,10.);
#190=VECTOR('',#623,10.);
#191=VECTOR('',#624,10.);
#192=VECTOR('',#627,10.);
#193=VECTOR('',#628,10.);
#194=VECTOR('',#629,10.);
#195=VECTOR('',#632,10.);
#196=VECTOR('',#633,10.);
#197=VERTEX_POINT('',#640);
#198=VERTEX_POINT('',#641);
#199=VERTEX_POINT('',#643);
#200=VERTEX_POINT('',#645);
#201=VERTEX_POINT('',#649);
#202=VERTEX_POINT('',#651);
#203=VERTEX_POINT('',#655);
#204=VERTEX_POINT('',#657);
#205=VERTEX_POINT('',#661);
#206=VERTEX_POINT('',#663);
#207=VERTEX_POINT('',#667);
#208=VERTEX_POINT('',#669);
#209=VERTEX_POINT('',#673);
#210=VERTEX_POINT('',#675);
#211=VERTEX_POINT('',#679);
#212=VERTEX_POINT('',#681);
#213=VERTEX_POINT('',#685);
#214=VERTEX_POINT('',#687);
#215=VERTEX_POINT('',#691);
#216=VERTEX_POINT('',#693);
#217=VERTEX_POINT('',#697);
#218=VERTEX_POINT('',#699);
#219=VERTEX_POINT('',#703);
#220=VERTEX_POINT('',#705);
#221=VERTEX_POINT('',#712);
#222=VERTEX_POINT('',#713);
#223=VERTEX_POINT('',#715);
#224=VERTEX_POINT('',#717);
#225=VERTEX_POINT('',#721);
#226=VERTEX_POINT('',#723);
#227=VERTEX_POINT('',#727);
#228=VERTEX_POINT('',#731);
#229=VERTEX_POINT('',#733);
#230=VERTEX_POINT('',#735);
#231=VERTEX_POINT('',#739);
#232=VERTEX_POINT('',#741);
#233=VERTEX_POINT('',#746);
#234=VERTEX_POINT('',#748);
#235=VERTEX_POINT('',#753);
#236=VERTEX_POINT('',#755);
#237=VERTEX_POINT('',#759);
#238=VERTEX_POINT('',#761);
#239=EDGE_CURVE('',#197,#198,#79,.T.);
#240=EDGE_CURVE('',#197,#199,#80,.T.);
#241=EDGE_CURVE('',#200,#199,#81,.T.);
#242=EDGE_CURVE('',#198,#200,#82,.T.);
#243=EDGE_CURVE('',#201,#197,#83,.T.);
#244=EDGE_CURVE('',#201,#202,#84,.T.);
#245=EDGE_CURVE('',#199,#202,#85,.T.);
#246=EDGE_CURVE('',#203,#201,#86,.T.);
#247=EDGE_CURVE('',#203,#204,#87,.T.);
#248=EDGE_CURVE('',#202,#204,#88,.T.);
#249=EDGE_CURVE('',#205,#203,#89,.T.);
#250=EDGE_CURVE('',#205,#206,#90,.T.);
#251=EDGE_CURVE('',#204,#206,#91,.T.);
#252=EDGE_CURVE('',#207,#205,#92,.T.);
#253=EDGE_CURVE('',#207,#208,#93,.T.);
#254=EDGE_CURVE('',#206,#208,#94,.T.);
#255=EDGE_CURVE('',#209,#207,#95,.T.);
#256=EDGE_CURVE('',#209,#210,#96,.T.);
#257=EDGE_CURVE('',#208,#210,#97,.T.);
#258=EDGE_CURVE('',#211,#209,#98,.T.);
#259=EDGE_CURVE('',#211,#212,#99,.T.);
#260=EDGE_CURVE('',#210,#212,#100,.T.);
#261=EDGE_CURVE('',#213,#211,#101,.T.);
#262=EDGE_CURVE('',#213,#214,#102,.T.);
#263=EDGE_CURVE('',#212,#214,#103,.T.);
#264=EDGE_CURVE('',#215,#213,#104,.T.);
#265=EDGE_CURVE('',#215,#216,#105,.T.);
#266=EDGE_CURVE('',#214,#216,#106,.T.);
#267=EDGE_CURVE('',#217,#215,#107,.T.);
#268=EDGE_CURVE('',#217,#218,#108,.T.);
#269=EDGE_CURVE('',#216,#218,#109,.T.);
#270=EDGE_CURVE('',#219,#217,#110,.T.);
#271=EDGE_CURVE('',#219,#220,#111,.T.);
#272=EDGE_CURVE('',#218,#220,#112,.T.);
#273=EDGE_CURVE('',#198,#219,#113,.T.);
#274=EDGE_CURVE('',#220,#200,#114,.T.);
#275=EDGE_CURVE('',#221,#222,#115,.T.);
#276=EDGE_CURVE('',#223,#221,#116,.T.);
#277=EDGE_CURVE('',#223,#224,#117,.T.);
#278=EDGE_CURVE('',#222,#224,#118,.T.);
#279=EDGE_CURVE('',#222,#225,#119,.T.);
#280=EDGE_CURVE('',#224,#226,#120,.T.);
#281=EDGE_CURVE('',#225,#226,#121,.T.);
#282=EDGE_CURVE('',#227,#223,#122,.T.);
#283=EDGE_CURVE('',#226,#227,#123,.T.);
#284=EDGE_CURVE('',#228,#227,#124,.T.);
#285=EDGE_CURVE('',#229,#228,#125,.T.);
#286=EDGE_CURVE('',#230,#229,#126,.T.);
#287=EDGE_CURVE('',#230,#225,#127,.T.);
#288=EDGE_CURVE('',#231,#231,#15,.T.);
#289=EDGE_CURVE('',#231,#232,#128,.T.);
#290=EDGE_CURVE('',#232,#232,#16,.T.);
#291=EDGE_CURVE('',#233,#233,#17,.T.);
#292=EDGE_CURVE('',#233,#234,#129,.T.);
#293=EDGE_CURVE('',#234,#234,#18,.T.);
#294=EDGE_CURVE('',#229,#235,#130,.T.);
#295=EDGE_CURVE('',#236,#228,#131,.T.);
#296=EDGE_CURVE('',#235,#236,#132,.T.);
#297=EDGE_CURVE('',#235,#237,#133,.T.);
#298=EDGE_CURVE('',#238,#236,#134,.T.);
#299=EDGE_CURVE('',#237,#238,#135,.T.);
#300=EDGE_CURVE('',#237,#230,#136,.T.);
#301=EDGE_CURVE('',#221,#238,#137,.T.);
#302=ORIENTED_EDGE('',*,*,#239,.F.);
#303=ORIENTED_EDGE('',*,*,#240,.T.);
#304=ORIENTED_EDGE('',*,*,#241,.F.);
#305=ORIENTED_EDGE('',*,*,#242,.F.);
#306=ORIENTED_EDGE('',*,*,#243,.F.);
#307=ORIENTED_EDGE('',*,*,#244,.T.);
#308=ORIENTED_EDGE('',*,*,#245,.F.);
#309=ORIENTED_EDGE('',*,*,#240,.F.);
#310=ORIENTED_EDGE('',*,*,#246,.F.);
#311=ORIENTED_EDGE('',*,*,#247,.T.);
#312=ORIENTED_EDGE('',*,*,#248,.F.);
#313=ORIENTED_EDGE('',*,*,#244,.F.);
#314=ORIENTED_EDGE('',*,*,#249,.F.);
#315=ORIENTED_EDGE('',*,*,#250,.T.);
#316=ORIENTED_EDGE('',*,*,#251,.F.);
#317=ORIENTED_EDGE('',*,*,#247,.F.);
#318=ORIENTED_EDGE('',*,*,#252,.F.);
#319=ORIENTED_EDGE('',*,*,#253,.T.);
#320=ORIENTED_EDGE('',*,*,#254,.F.);
#321=ORIENTED_EDGE('',*,*,#250,.F.);
#322=ORIENTED_EDGE('',*,*,#255,.F.);
#323=ORIENTED_EDGE('',*,*,#256,.T.);
#324=ORIENTED_EDGE('',*,*,#257,.F.);
#325=ORIENTED_EDGE('',*,*,#253,.F.);
#326=ORIENTED_EDGE('',*,*,#258,.F.);
#327=ORIENTED_EDGE('',*,*,#259,.T.);
#328=ORIENTED_EDGE('',*,*,#260,.F.);
#329=ORIENTED_EDGE('',*,*,#256,.F.);
#330=ORIENTED_EDGE('',*,*,#261,.F.);
#331=ORIENTED_EDGE('',*,*,#262,.T.);
#332=ORIENTED_EDGE('',*,*,#263,.F.);
#333=ORIENTED_EDGE('',*,*,#259,.F.);
#334=ORIENTED_EDGE('',*,*,#264,.F.);
#335=ORIENTED_EDGE('',*,*,#265,.T.);
#336=ORIENTED_EDGE('',*,*,#266,.F.);
#337=ORIENTED_EDGE('',*,*,#262,.F.);
#338=ORIENTED_EDGE('',*,*,#267,.F.);
#339=ORIENTED_EDGE('',*,*,#268,.T.);
#340=ORIENTED_EDGE('',*,*,#269,.F.);
#341=ORIENTED_EDGE('',*,*,#265,.F.);
#342=ORIENTED_EDGE('',*,*,#270,.F.);
#343=ORIENTED_EDGE('',*,*,#271,.T.);
#344=ORIENTED_EDGE('',*,*,#272,.F.);
#345=ORIENTED_EDGE('',*,*,#268,.F.);
#346=ORIENTED_EDGE('',*,*,#273,.F.);
#347=ORIENTED_EDGE('',*,*,#242,.T.);
#348=ORIENTED_EDGE('',*,*,#274,.F.);
#349=ORIENTED_EDGE('',*,*,#271,.F.);
#350=ORIENTED_EDGE('',*,*,#275,.F.);
#351=ORIENTED_EDGE('',*,*,#276,.F.);
#352=ORIENTED_EDGE('',*,*,#277,.T.);
#353=ORIENTED_EDGE('',*,*,#278,.F.);
#354=ORIENTED_EDGE('',*,*,#279,.F.);
#355=ORIENTED_EDGE('',*,*,#278,.T.);
#356=ORIENTED_EDGE('',*,*,#280,.T.);
#357=ORIENTED_EDGE('',*,*,#281,.F.);
#358=ORIENTED_EDGE('',*,*,#280,.F.);
#359=ORIENTED_EDGE('',*,*,#277,.F.);
#360=ORIENTED_EDGE('',*,*,#282,.F.);
#361=ORIENTED_EDGE('',*,*,#283,.F.);
#362=ORIENTED_EDGE('',*,*,#241,.T.);
#363=ORIENTED_EDGE('',*,*,#245,.T.);
#364=ORIENTED_EDGE('',*,*,#248,.T.);
#365=ORIENTED_EDGE('',*,*,#251,.T.);
#366=ORIENTED_EDGE('',*,*,#254,.T.);
#367=ORIENTED_EDGE('',*,*,#257,.T.);
#368=ORIENTED_EDGE('',*,*,#260,.T.);
#369=ORIENTED_EDGE('',*,*,#263,.T.);
#370=ORIENTED_EDGE('',*,*,#266,.T.);
#371=ORIENTED_EDGE('',*,*,#269,.T.);
#372=ORIENTED_EDGE('',*,*,#272,.T.);
#373=ORIENTED_EDGE('',*,*,#274,.T.);
#374=ORIENTED_EDGE('',*,*,#281,.T.);
#375=ORIENTED_EDGE('',*,*,#283,.T.);
#376=ORIENTED_EDGE('',*,*,#284,.F.);
#377=ORIENTED_EDGE('',*,*,#285,.F.);
#378=ORIENTED_EDGE('',*,*,#286,.F.);
#379=ORIENTED_EDGE('',*,*,#287,.T.);
#380=ORIENTED_EDGE('',*,*,#288,.F.);
#381=ORIENTED_EDGE('',*,*,#289,.T.);
#382=ORIENTED_EDGE('',*,*,#290,.F.);
#383=ORIENTED_EDGE('',*,*,#289,.F.);
#384=ORIENTED_EDGE('',*,*,#288,.T.);
#385=ORIENTED_EDGE('',*,*,#291,.F.);
#386=ORIENTED_EDGE('',*,*,#292,.T.);
#387=ORIENTED_EDGE('',*,*,#293,.F.);
#388=ORIENTED_EDGE('',*,*,#292,.F.);
#389=ORIENTED_EDGE('',*,*,#291,.T.);
#390=ORIENTED_EDGE('',*,*,#294,.F.);
#391=ORIENTED_EDGE('',*,*,#285,.T.);
#392=ORIENTED_EDGE('',*,*,#295,.F.);
#393=ORIENTED_EDGE('',*,*,#296,.F.);
#394=ORIENTED_EDGE('',*,*,#239,.T.);
#395=ORIENTED_EDGE('',*,*,#273,.T.);
#396=ORIENTED_EDGE('',*,*,#270,.T.);
#397=ORIENTED_EDGE('',*,*,#267,.T.);
#398=ORIENTED_EDGE('',*,*,#264,.T.);
#399=ORIENTED_EDGE('',*,*,#261,.T.);
#400=ORIENTED_EDGE('',*,*,#258,.T.);
#401=ORIENTED_EDGE('',*,*,#255,.T.);
#402=ORIENTED_EDGE('',*,*,#252,.T.);
#403=ORIENTED_EDGE('',*,*,#249,.T.);
#404=ORIENTED_EDGE('',*,*,#246,.T.);
#405=ORIENTED_EDGE('',*,*,#243,.T.);
#406=ORIENTED_EDGE('',*,*,#297,.F.);
#407=ORIENTED_EDGE('',*,*,#296,.T.);
#408=ORIENTED_EDGE('',*,*,#298,.F.);
#409=ORIENTED_EDGE('',*,*,#299,.F.);
#410=ORIENTED_EDGE('',*,*,#279,.T.);
#411=ORIENTED_EDGE('',*,*,#287,.F.);
#412=ORIENTED_EDGE('',*,*,#300,.F.);
#413=ORIENTED_EDGE('',*,*,#299,.T.);
#414=ORIENTED_EDGE('',*,*,#301,.F.);
#415=ORIENTED_EDGE('',*,*,#275,.T.);
#416=ORIENTED_EDGE('',*,*,#276,.T.);
#417=ORIENTED_EDGE('',*,*,#301,.T.);
#418=ORIENTED_EDGE('',*,*,#298,.T.);
#419=ORIENTED_EDGE('',*,*,#295,.T.);
#420=ORIENTED_EDGE('',*,*,#284,.T.);
#421=ORIENTED_EDGE('',*,*,#282,.T.);
#422=ORIENTED_EDGE('',*,*,#300,.T.);
#423=ORIENTED_EDGE('',*,*,#286,.T.);
#424=ORIENTED_EDGE('',*,*,#294,.T.);
#425=ORIENTED_EDGE('',*,*,#297,.T.);
#426=ORIENTED_EDGE('',*,*,#290,.T.);
#427=ORIENTED_EDGE('',*,*,#293,.T.);
#428=PLANE('',#490);
#429=PLANE('',#491);
#430=PLANE('',#492);
#431=PLANE('',#493);
#432=PLANE('',#494);
#433=PLANE('',#495);
#434=PLANE('',#496);
#435=PLANE('',#497);
#436=PLANE('',#498);
#437=PLANE('',#499);
#438=PLANE('',#500);
#439=PLANE('',#501);
#440=PLANE('',#502);
#441=PLANE('',#503);
#442=PLANE('',#504);
#443=PLANE('',#505);
#444=PLANE('',#509);
#445=PLANE('',#513);
#446=PLANE('',#514);
#447=PLANE('',#515);
#448=PLANE('',#516);
#449=PLANE('',#517);
#450=PLANE('',#518);
#451=ADVANCED_FACE('',(#25),#428,.F.);
#452=ADVANCED_FACE('',(#26),#429,.F.);
#453=ADVANCED_FACE('',(#27),#430,.F.);
#454=ADVANCED_FACE('',(#28),#431,.F.);
#455=ADVANCED_FACE('',(#29),#432,.F.);
#456=ADVANCED_FACE('',(#30),#433,.F.);
#457=ADVANCED_FACE('',(#31),#434,.F.);
#458=ADVANCED_FACE('',(#32),#435,.F.);
#459=ADVANCED_FACE('',(#33),#436,.F.);
#460=ADVANCED_FACE('',(#34),#437,.F.);
#461=ADVANCED_FACE('',(#35),#438,.F.);
#462=ADVANCED_FACE('',(#36),#439,.F.);
#463=ADVANCED_FACE('',(#37),#440,.F.);
#464=ADVANCED_FACE('',(#38),#441,.F.);
#465=ADVANCED_FACE('',(#39,#21),#442,.F.);
#466=ADVANCED_FACE('',(#40),#443,.T.);
#467=ADVANCED_FACE('',(#41),#19,.T.);
#468=ADVANCED_FACE('',(#42),#444,.F.);
#469=ADVANCED_FACE('',(#43),#20,.T.);
#470=ADVANCED_FACE('',(#44),#445,.F.);
#471=ADVANCED_FACE('',(#45,#22),#446,.T.);
#472=ADVANCED_FACE('',(#46),#447,.T.);
#473=ADVANCED_FACE('',(#47),#448,.T.);
#474=ADVANCED_FACE('',(#48),#449,.T.);
#475=ADVANCED_FACE('',(#49,#23,#24),#450,.F.);
#476=CLOSED_SHELL('',(#451,#452,#453,#454,#455,#456,#457,#458,#459,#460,
#461,#462,#463,#464,#465,#466,#467,#468,#469,#470,#471,#472,#473,#474,#475));
#477=DERIVED_UNIT_ELEMENT(#479,1.);
#478=DERIVED_UNIT_ELEMENT(#774,-3.);
#479=(
MASS_UNIT()
NAMED_UNIT(*)
SI_UNIT(.KILO.,.GRAM.)
);
#480=DERIVED_UNIT((#477,#478));
#481=MEASURE_REPRESENTATION_ITEM('density measure',
POSITIVE_RATIO_MEASURE(7850.),#480);
#482=PROPERTY_DEFINITION_REPRESENTATION(#487,#484);
#483=PROPERTY_DEFINITION_REPRESENTATION(#488,#485);
#484=REPRESENTATION('material name',(#486),#771);
#485=REPRESENTATION('density',(#481),#771);
#486=DESCRIPTIVE_REPRESENTATION_ITEM('Steel','Steel');
#487=PROPERTY_DEFINITION('material property','material name',#781);
#488=PROPERTY_DEFINITION('material property','density of part',#781);
#489=AXIS2_PLACEMENT_3D('',#638,#519,#520);
#490=AXIS2_PLACEMENT_3D('',#639,#521,#522);
#491=AXIS2_PLACEMENT_3D('',#648,#527,#528);
#492=AXIS2_PLACEMENT_3D('',#654,#532,#533);
#493=AXIS2_PLACEMENT_3D('',#660,#537,#538);
#494=AXIS2_PLACEMENT_3D('',#666,#542,#543);
#495=AXIS2_PLACEMENT_3D('',#672,#547,#548);
#496=AXIS2_PLACEMENT_3D('',#678,#552,#553);
#497=AXIS2_PLACEMENT_3D('',#684,#557,#558);
#498=AXIS2_PLACEMENT_3D('',#690,#562,#563);
#499=AXIS2_PLACEMENT_3D('',#696,#567,#568);
#500=AXIS2_PLACEMENT_3D('',#702,#572,#573);
#501=AXIS2_PLACEMENT_3D('',#708,#577,#578);
#502=AXIS2_PLACEMENT_3D('',#711,#581,#582);
#503=AXIS2_PLACEMENT_3D('',#720,#587,#588);
#504=AXIS2_PLACEMENT_3D('',#726,#592,#593);
#505=AXIS2_PLACEMENT_3D('',#730,#596,#597);
#506=AXIS2_PLACEMENT_3D('',#738,#602,#603);
#507=AXIS2_PLACEMENT_3D('',#740,#604,#605);
#508=AXIS2_PLACEMENT_3D('',#743,#607,#608);
#509=AXIS2_PLACEMENT_3D('',#744,#609,#610);
#510=AXIS2_PLACEMENT_3D('',#745,#611,#612);
#511=AXIS2_PLACEMENT_3D('',#747,#613,#614);
#512=AXIS2_PLACEMENT_3D('',#750,#616,#617);
#513=AXIS2_PLACEMENT_3D('',#751,#618,#619);
#514=AXIS2_PLACEMENT_3D('',#752,#620,#621);
#515=AXIS2_PLACEMENT_3D('',#758,#625,#626);
#516=AXIS2_PLACEMENT_3D('',#764,#630,#631);
#517=AXIS2_PLACEMENT_3D('',#767,#634,#635);
#518=AXIS2_PLACEMENT_3D('',#768,#636,#637);
#519=DIRECTION('axis',(0.,0.,1.));
#520=DIRECTION('refdir',(1.,0.,0.));
#521=DIRECTION('center_axis',(0.,-1.,0.));
#522=DIRECTION('ref_axis',(-1.,0.,0.));
#523=DIRECTION('',(-1.,0.,0.));
#524=DIRECTION('',(0.,0.,-1.));
#525=DIRECTION('',(1.,0.,0.));
#526=DIRECTION('',(0.,0.,-1.));
#527=DIRECTION('center_axis',(1.,0.,0.));
#528=DIRECTION('ref_axis',(0.,-1.,0.));
#529=DIRECTION('',(0.,-1.,0.));
#530=DIRECTION('',(0.,0.,-1.));
#531=DIRECTION('',(0.,1.,0.));
#532=DIRECTION('center_axis',(0.,-1.,0.));
#533=DIRECTION('ref_axis',(-1.,0.,0.));
#534=DIRECTION('',(-1.,0.,0.));
#535=DIRECTION('',(0.,0.,-1.));
#536=DIRECTION('',(1.,0.,0.));
#537=DIRECTION('center_axis',(1.,0.,0.));
#538=DIRECTION('ref_axis',(0.,-1.,0.));
#539=DIRECTION('',(0.,-1.,0.));
#540=DIRECTION('',(0.,0.,-1.));
#541=DIRECTION('',(0.,1.,0.));
#542=DIRECTION('center_axis',(0.,1.,0.));
#543=DIRECTION('ref_axis',(1.,0.,0.));
#544=DIRECTION('',(1.,0.,0.));
#545=DIRECTION('',(0.,0.,-1.));
#546=DIRECTION('',(-1.,0.,0.));
#547=DIRECTION('center_axis',(-1.,0.,0.));
#548=DIRECTION('ref_axis',(0.,1.,0.));
#549=DIRECTION('',(0.,1.,0.));
#550=DIRECTION('',(0.,0.,-1.));
#551=DIRECTION('',(0.,-1.,0.));
#552=DIRECTION('center_axis',(0.,-1.,0.));
#553=DIRECTION('ref_axis',(-1.,0.,0.));
#554=DIRECTION('',(-1.,0.,0.));
#555=DIRECTION('',(0.,0.,-1.));
#556=DIRECTION('',(1.,0.,0.));
#557=DIRECTION('center_axis',(-1.,0.,0.));
#558=DIRECTION('ref_axis',(0.,1.,0.));
#559=DIRECTION('',(0.,1.,0.));
#560=DIRECTION('',(0.,0.,-1.));
#561=DIRECTION('',(0.,-1.,0.));
#562=DIRECTION('center_axis',(0.,-1.,0.));
#563=DIRECTION('ref_axis',(-1.,0.,0.));
#564=DIRECTION('',(-1.,0.,0.));
#565=DIRECTION('',(0.,0.,-1.));
#566=DIRECTION('',(1.,0.,0.));
#567=DIRECTION('center_axis',(1.,0.,0.));
#568=DIRECTION('ref_axis',(0.,-1.,0.));
#569=DIRECTION('',(0.,-1.,0.));
#570=DIRECTION('',(0.,0.,-1.));
#571=DIRECTION('',(0.,1.,0.));
#572=DIRECTION('center_axis',(0.,-1.,0.));
#573=DIRECTION('ref_axis',(-1.,0.,0.));
#574=DIRECTION('',(-1.,0.,0.));
#575=DIRECTION('',(0.,0.,-1.));
#576=DIRECTION('',(1.,0.,0.));
#577=DIRECTION('center_axis',(-1.,0.,0.));
#578=DIRECTION('ref_axis',(0.,1.,0.));
#579=DIRECTION('',(0.,1.,0.));
#580=DIRECTION('',(0.,-1.,0.));
#581=DIRECTION('center_axis',(-1.,0.,0.));
#582=DIRECTION('ref_axis',(0.,-1.,0.));
#583=DIRECTION('',(0.,-1.,0.));
#584=DIRECTION('',(0.,0.,-1.));
#585=DIRECTION('',(0.,-1.,0.));
#586=DIRECTION('',(0.,0.,1.));
#587=DIRECTION('center_axis',(0.,-1.,0.));
#588=DIRECTION('ref_axis',(1.,0.,0.));
#589=DIRECTION('',(1.,0.,0.));
#590=DIRECTION('',(1.,0.,0.));
#591=DIRECTION('',(0.,0.,1.));
#592=DIRECTION('center_axis',(0.,0.,1.));
#593=DIRECTION('ref_axis',(1.,0.,0.));
#594=DIRECTION('',(-1.,0.,0.));
#595=DIRECTION('',(0.,1.,0.));
#596=DIRECTION('center_axis',(1.,0.,0.));
#597=DIRECTION('ref_axis',(0.,0.,-1.));
#598=DIRECTION('',(0.,0.,-1.));
#599=DIRECTION('',(0.,1.,0.));
#600=DIRECTION('',(0.,0.,1.));
#601=DIRECTION('',(0.,1.,0.));
#602=DIRECTION('center_axis',(0.,-1.,0.));
#603=DIRECTION('ref_axis',(1.,0.,0.));
#604=DIRECTION('center_axis',(0.,-1.,0.));
#605=DIRECTION('ref_axis',(1.,0.,0.));
#606=DIRECTION('',(0.,1.,0.));
#607=DIRECTION('center_axis',(0.,1.,0.));
#608=DIRECTION('ref_axis',(1.,0.,0.));
#609=DIRECTION('center_axis',(0.,1.,0.));
#610=DIRECTION('ref_axis',(1.,0.,0.));
#611=DIRECTION('center_axis',(0.,-1.,0.));
#612=DIRECTION('ref_axis',(1.,0.,0.));
#613=DIRECTION('center_axis',(0.,-1.,0.));
#614=DIRECTION('ref_axis',(1.,0.,0.));
#615=DIRECTION('',(0.,1.,0.));
#616=DIRECTION('center_axis',(0.,1.,0.));
#617=DIRECTION('ref_axis',(1.,0.,0.));
#618=DIRECTION('center_axis',(0.,1.,0.));
#619=DIRECTION('ref_axis',(1.,0.,0.));
#620=DIRECTION('center_axis',(0.,0.,1.));
#621=DIRECTION('ref_axis',(1.,0.,0.));
#622=DIRECTION('',(-1.,0.,0.));
#623=DIRECTION('',(1.,0.,0.));
#624=DIRECTION('',(0.,1.,0.));
#625=DIRECTION('center_axis',(-1.,0.,0.));
#626=DIRECTION('ref_axis',(0.,0.,1.));
#627=DIRECTION('',(0.,0.,-1.));
#628=DIRECTION('',(0.,0.,1.));
#629=DIRECTION('',(0.,1.,0.));
#630=DIRECTION('center_axis',(0.,0.,-1.));
#631=DIRECTION('ref_axis',(-1.,0.,0.));
#632=DIRECTION('',(1.,0.,0.));
#633=DIRECTION('',(-1.,0.,0.));
#634=DIRECTION('center_axis',(0.,1.,0.));
#635=DIRECTION('ref_axis',(0.,0.,1.));
#636=DIRECTION('center_axis',(0.,1.,0.));
#637=DIRECTION('ref_axis',(1.,0.,0.));
#638=CARTESIAN_POINT('',(0.,0.,0.));
#639=CARTESIAN_POINT('Origin',(21.2,20.,10.));
#640=CARTESIAN_POINT('',(21.2,20.,10.));
#641=CARTESIAN_POINT('',(11.2,20.,10.));
#642=CARTESIAN_POINT('',(-4.85,20.,10.));
#643=CARTESIAN_POINT('',(21.2,20.,8.));
#644=CARTESIAN_POINT('',(21.2,20.,10.));
#645=CARTESIAN_POINT('',(11.2,20.,8.));
#646=CARTESIAN_POINT('',(16.1,20.,8.));
#647=CARTESIAN_POINT('',(11.2,20.,10.));
#648=CARTESIAN_POINT('Origin',(21.2,31.,10.));
#649=CARTESIAN_POINT('',(21.2,31.,10.));
#650=CARTESIAN_POINT('',(21.2,15.5,10.));
#651=CARTESIAN_POINT('',(21.2,31.,8.));
#652=CARTESIAN_POINT('',(21.2,31.,10.));
#653=CARTESIAN_POINT('',(21.2,29.,8.));
#654=CARTESIAN_POINT('Origin',(30.2,31.,10.));
#655=CARTESIAN_POINT('',(30.2,31.,10.));
#656=CARTESIAN_POINT('',(-0.350000000000001,31.,10.));
#657=CARTESIAN_POINT('',(30.2,31.,8.));
#658=CARTESIAN_POINT('',(30.2,31.,10.));
#659=CARTESIAN_POINT('',(20.6,31.,8.));
#660=CARTESIAN_POINT('Origin',(30.2,33.,10.));
#661=CARTESIAN_POINT('',(30.2,33.,10.));
#662=CARTESIAN_POINT('',(30.2,16.5,10.));
#663=CARTESIAN_POINT('',(30.2,33.,8.));
#664=CARTESIAN_POINT('',(30.2,33.,10.));
#665=CARTESIAN_POINT('',(30.2,30.,8.));
#666=CARTESIAN_POINT('Origin',(-8.00000000000001,33.,10.));
#667=CARTESIAN_POINT('',(-8.00000000000001,33.,10.));
#668=CARTESIAN_POINT('',(-19.45,33.,10.));
#669=CARTESIAN_POINT('',(-8.00000000000001,33.,8.));
#670=CARTESIAN_POINT('',(-8.00000000000001,33.,10.));
#671=CARTESIAN_POINT('',(1.5,33.,8.));
#672=CARTESIAN_POINT('Origin',(-8.00000000000001,31.,10.));
#673=CARTESIAN_POINT('',(-8.00000000000001,31.,10.));
#674=CARTESIAN_POINT('',(-8.,15.5,10.));
#675=CARTESIAN_POINT('',(-8.00000000000001,31.,8.));
#676=CARTESIAN_POINT('',(-8.00000000000001,31.,10.));
#677=CARTESIAN_POINT('',(-8.00000000000001,29.,8.));
#678=CARTESIAN_POINT('Origin',(2.,31.,10.));
#679=CARTESIAN_POINT('',(2.,31.,10.));
#680=CARTESIAN_POINT('',(-14.45,31.,10.));
#681=CARTESIAN_POINT('',(2.,31.,8.));
#682=CARTESIAN_POINT('',(2.,31.,10.));
#683=CARTESIAN_POINT('',(6.5,31.,8.));
#684=CARTESIAN_POINT('Origin',(2.,24.,10.));
#685=CARTESIAN_POINT('',(2.,24.,10.));
#686=CARTESIAN_POINT('',(2.,12.,10.));
#687=CARTESIAN_POINT('',(2.,24.,8.));
#688=CARTESIAN_POINT('',(2.,24.,10.));
#689=CARTESIAN_POINT('',(2.,25.5,8.));
#690=CARTESIAN_POINT('Origin',(6.99999999999999,24.,10.));
#691=CARTESIAN_POINT('',(6.99999999999999,24.,10.));
#692=CARTESIAN_POINT('',(-11.95,24.,10.));
#693=CARTESIAN_POINT('',(6.99999999999999,24.,8.));
#694=CARTESIAN_POINT('',(6.99999999999999,24.,10.));
#695=CARTESIAN_POINT('',(9.,24.,8.));
#696=CARTESIAN_POINT('Origin',(6.99999999999999,31.,10.));
#697=CARTESIAN_POINT('',(6.99999999999999,31.,10.));
#698=CARTESIAN_POINT('',(7.,15.5,10.));
#699=CARTESIAN_POINT('',(6.99999999999999,31.,8.));
#700=CARTESIAN_POINT('',(6.99999999999999,31.,10.));
#701=CARTESIAN_POINT('',(6.99999999999999,29.,8.));
#702=CARTESIAN_POINT('Origin',(11.2,31.,10.));
#703=CARTESIAN_POINT('',(11.2,31.,10.));
#704=CARTESIAN_POINT('',(-9.85,31.,10.));
#705=CARTESIAN_POINT('',(11.2,31.,8.));
#706=CARTESIAN_POINT('',(11.2,31.,10.));
#707=CARTESIAN_POINT('',(11.1,31.,8.));
#708=CARTESIAN_POINT('Origin',(11.2,20.,10.));
#709=CARTESIAN_POINT('',(11.2,10.,10.));
#710=CARTESIAN_POINT('',(11.2,23.5,8.));
#711=CARTESIAN_POINT('Origin',(-9.,35.,-4.));
#712=CARTESIAN_POINT('',(-9.,35.,-4.));
#713=CARTESIAN_POINT('',(-9.,19.,-4.));
#714=CARTESIAN_POINT('',(-9.,17.5,-4.));
#715=CARTESIAN_POINT('',(-9.,35.,8.));
#716=CARTESIAN_POINT('',(-9.,35.,-0.499999999999999));
#717=CARTESIAN_POINT('',(-9.,19.,8.));
#718=CARTESIAN_POINT('',(-9.,35.,8.));
#719=CARTESIAN_POINT('',(-9.,19.,-4.));
#720=CARTESIAN_POINT('Origin',(-9.,19.,-4.));
#721=CARTESIAN_POINT('',(31.,19.,-4.));
#722=CARTESIAN_POINT('',(11.,19.,-4.));
#723=CARTESIAN_POINT('',(31.,19.,8.));
#724=CARTESIAN_POINT('',(-9.,19.,8.));
#725=CARTESIAN_POINT('',(31.,19.,3.));
#726=CARTESIAN_POINT('Origin',(11.,27.,8.));
#727=CARTESIAN_POINT('',(31.,35.,8.));
#728=CARTESIAN_POINT('',(5.525,35.,8.));
#729=CARTESIAN_POINT('',(31.,13.5,8.));
#730=CARTESIAN_POINT('Origin',(31.,0.,10.));
#731=CARTESIAN_POINT('',(31.,35.,10.));
#732=CARTESIAN_POINT('',(31.,35.,-4.));
#733=CARTESIAN_POINT('',(31.,0.,10.));
#734=CARTESIAN_POINT('',(31.,0.,10.));
#735=CARTESIAN_POINT('',(31.,0.,-4.));
#736=CARTESIAN_POINT('',(31.,0.,-4.));
#737=CARTESIAN_POINT('',(31.,0.,-4.));
#738=CARTESIAN_POINT('Origin',(23.,0.,0.));
#739=CARTESIAN_POINT('',(21.05,-4.5,2.38806125833734E-16));
#740=CARTESIAN_POINT('Origin',(23.,-4.5,0.));
#741=CARTESIAN_POINT('',(21.05,0.,2.38806125833734E-16));
#742=CARTESIAN_POINT('',(21.05,0.,-2.38806125833734E-16));
#743=CARTESIAN_POINT('Origin',(23.,0.,0.));
#744=CARTESIAN_POINT('Origin',(23.,-4.5,0.));
#745=CARTESIAN_POINT('Origin',(-23.,0.,0.));
#746=CARTESIAN_POINT('',(-24.95,-4.5,2.38806125833734E-16));
#747=CARTESIAN_POINT('Origin',(-23.,-4.5,0.));
#748=CARTESIAN_POINT('',(-24.95,0.,2.38806125833734E-16));
#749=CARTESIAN_POINT('',(-24.95,0.,-2.38806125833734E-16));
#750=CARTESIAN_POINT('Origin',(-23.,0.,0.));
#751=CARTESIAN_POINT('Origin',(-23.,-4.5,0.));
#752=CARTESIAN_POINT('Origin',(-30.9,0.,10.));
#753=CARTESIAN_POINT('',(-30.9,0.,10.));
#754=CARTESIAN_POINT('',(31.,0.,10.));
#755=CARTESIAN_POINT('',(-30.9,35.,10.));
#756=CARTESIAN_POINT('',(31.,35.,10.));
#757=CARTESIAN_POINT('',(-30.9,0.,10.));
#758=CARTESIAN_POINT('Origin',(-30.9,0.,-4.));
#759=CARTESIAN_POINT('',(-30.9,0.,-4.));
#760=CARTESIAN_POINT('',(-30.9,0.,10.));
#761=CARTESIAN_POINT('',(-30.9,35.,-4.));
#762=CARTESIAN_POINT('',(-30.9,35.,10.));
#763=CARTESIAN_POINT('',(-30.9,0.,-4.));
#764=CARTESIAN_POINT('Origin',(31.,0.,-4.));
#765=CARTESIAN_POINT('',(-30.9,0.,-4.));
#766=CARTESIAN_POINT('',(-30.9,35.,-4.));
#767=CARTESIAN_POINT('Origin',(0.0499999999999989,35.,3.));
#768=CARTESIAN_POINT('Origin',(0.0499999999999989,0.,3.));
#769=UNCERTAINTY_MEASURE_WITH_UNIT(LENGTH_MEASURE(0.01),#773,
'DISTANCE_ACCURACY_VALUE',
'Maximum model space distance between geometric entities at asserted c
onnectivities');
#770=UNCERTAINTY_MEASURE_WITH_UNIT(LENGTH_MEASURE(0.01),#773,
'DISTANCE_ACCURACY_VALUE',
'Maximum model space distance between geometric entities at asserted c
onnectivities');
#771=(
GEOMETRIC_REPRESENTATION_CONTEXT(3)
GLOBAL_UNCERTAINTY_ASSIGNED_CONTEXT((#769))
GLOBAL_UNIT_ASSIGNED_CONTEXT((#773,#775,#776))
REPRESENTATION_CONTEXT('','3D')
);
#772=(
GEOMETRIC_REPRESENTATION_CONTEXT(3)
GLOBAL_UNCERTAINTY_ASSIGNED_CONTEXT((#770))
GLOBAL_UNIT_ASSIGNED_CONTEXT((#773,#775,#776))
REPRESENTATION_CONTEXT('','3D')
);
#773=(
LENGTH_UNIT()
NAMED_UNIT(*)
SI_UNIT(.MILLI.,.METRE.)
);
#774=(
LENGTH_UNIT()
NAMED_UNIT(*)
SI_UNIT($,.METRE.)
);
#775=(
NAMED_UNIT(*)
PLANE_ANGLE_UNIT()
SI_UNIT($,.RADIAN.)
);
#776=(
NAMED_UNIT(*)
SI_UNIT($,.STERADIAN.)
SOLID_ANGLE_UNIT()
);
#777=SHAPE_DEFINITION_REPRESENTATION(#778,#779);
#778=PRODUCT_DEFINITION_SHAPE('',$,#781);
#779=SHAPE_REPRESENTATION('',(#489),#771);
#780=PRODUCT_DEFINITION_CONTEXT('part definition',#785,'design');
#781=PRODUCT_DEFINITION('2026-07-01-00-24-24-081','wifiBracket',#782,#780);
#782=PRODUCT_DEFINITION_FORMATION('',$,#787);
#783=PRODUCT_RELATED_PRODUCT_CATEGORY('wifiBracket','wifiBracket',(#787));
#784=APPLICATION_PROTOCOL_DEFINITION('international standard',
'automotive_design',2009,#785);
#785=APPLICATION_CONTEXT(
'Core Data for Automotive Mechanical Design Process');
#786=PRODUCT_CONTEXT('part definition',#785,'mechanical');
#787=PRODUCT('2026-07-01-00-24-24-081','wifiBracket',$,(#786));
#788=PRESENTATION_STYLE_ASSIGNMENT((#789));
#789=SURFACE_STYLE_USAGE(.BOTH.,#790);
#790=SURFACE_SIDE_STYLE('',(#791));
#791=SURFACE_STYLE_FILL_AREA(#792);
#792=FILL_AREA_STYLE('Steel - Satin',(#793));
#793=FILL_AREA_STYLE_COLOUR('Steel - Satin',#794);
#794=COLOUR_RGB('Steel - Satin',0.627450980392157,0.627450980392157,0.627450980392157);
ENDSEC;
END-ISO-10303-21;
